<!--?xml version="1.0" standalone="no"?-->
              <svg id="sw-js-blob-svg" viewBox="0 0 100 100" xmlns="http://www.w3.org/2000/svg" version="1.1">
                    <defs> 
                        <linearGradient id="sw-gradient" x1="0" x2="1" y1="1" y2="0">
                            <stop id="stop1" stop-color="rgba(50.396, 102.633, 34.223, 1)" offset="0%"></stop>
                            <stop id="stop2" stop-color="rgba(114.24, 198.258, 117.145, 1)" offset="100%"></stop>
                        </linearGradient>
                    </defs>
                <path fill="url(#sw-gradient)" d="M21.5,-25C27.4,-20.7,31.2,-13.5,34.4,-4.7C37.5,4,39.9,14.2,35.9,20.3C31.9,26.3,21.4,28.1,12.4,29.5C3.3,30.8,-4.3,31.7,-10.5,29.3C-16.8,26.8,-21.7,21.1,-27.8,14.3C-33.8,7.4,-41,-0.5,-41.7,-9.3C-42.5,-18,-36.8,-27.5,-28.8,-31.4C-20.7,-35.2,-10.4,-33.4,-1.3,-31.9C7.8,-30.4,15.7,-29.2,21.5,-25Z" width="100%" height="100%" transform="translate(50 50)" stroke-width="0" style="transition: all 0.3s ease 0s;" stroke="url(#sw-gradient)"></path>
              </svg>